<svg xmlns="http://www.w3.org/2000/svg" xmlns:xlink="http://www.w3.org/1999/xlink" id="Layer_1" data-name="Layer 1" viewBox="0 0 1500 1000"><defs><style>.cls-1{fill:none;}.cls-2{fill:#002776;}.cls-3{clip-path:url(#clip-path);}.cls-4{fill:#fff;}.cls-5{fill:#009b3a;}</style><clipPath id="clip-path"><ellipse class="cls-1" cx="750" cy="500" rx="402" ry="402.8"/></clipPath></defs><title>Flag-of-Brazil</title><g id="_45" data-name=" 45"><g class="cls-3"><path class="cls-4" d="M-456,1305.61c0-540.27,437.09-978.25,976.28-978.25s976.29,438,976.29,978.25h-57.44c0-508.49-411.37-920.69-918.85-920.69s-918.85,412.25-918.85,920.69Z"/></g></g><path id="_44" data-name=" 44" class="cls-5" d="M535.47,375.28l34.44,1.22.24-7.12-27.88-1,.35-9.81,21.86.77.23-6.57-21.87-.89.28-7.67,26.24.93.18-7L536.74,337Z"/><path id="_43" data-name=" 43" class="cls-5" d="M584,377.4l6.55.57,2.28-26.2,5.36,26.87,5.88.53,9.93-25.5-2.3,26.2,6.53.57,3.34-38.21-9.54-.84-9.9,25.5L597,340l-9.53-.85Z"/><path id="_42" data-name=" 42" class="cls-5" d="M663.36,386.33l28.3,4.8,1.12-6.47L671,380.89l1.47-8.63,17.79,3.06,1.12-6.49-17.83-3,1-5.88,21.15,3.64,1.11-6.47-27.62-4.77Z"/><polygon id="_41" data-name=" 41" class="cls-5" points="900.63 435.98 913.93 441.78 911.75 446.8 898.45 441.02 900.63 435.98"/><polygon id="_40" data-name=" 40" class="cls-5" points="908.9 439.58 913.93 441.78 906.3 459.36 901.27 457.18 908.9 439.58"/><path id="_39" data-name=" 39" class="cls-5" d="M1018.32,506.2c-2,3.24,0,6.84,4.65,9.81s7.85,2.84,9.08.76c4.2-6.59-20-16.18-12.55-27.68,6.43-9.8,17.44-2.17,21.57.47s10.81,9.5,5.63,17.4l-7-4.49c2.2-3.47-.21-6.79-3.92-9.14s-6.47-3.33-8.61,0c-3.57,5.36,20.16,15.48,12.88,26.91-5.37,8.44-14.69,4.75-20.92.77-5.3-3.38-13.23-11.36-8.07-19.44Z"/><path id="_38" data-name=" 38" class="cls-5" d="M962.48,487.43l30,17,3.49-6.2L971.67,484.5l4.87-8.59,19,10.81L998.8,481l-19-10.79,3.78-6.68,22.83,13,3.52-6.22-28.56-16.18Z"/><path id="_37" data-name=" 37" class="cls-5" d="M1059.4,533.42c-2.22,3.12-.32,6.83,4.11,10s7.62,3.25,9,1.23c4.51-6.35-19.15-17.22-11.11-28.28,7-9.51,17.54-1.28,21.58,1.59s10.32,10.06,4.73,17.65l-6.81-4.84c2.4-3.36.14-6.81-3.41-9.36s-6.3-3.65-8.61-.41c-3.92,5.16,19.32,16.49,11.47,27.46-5.88,8.14-14.92,3.92-20.93-.31-5.12-3.67-12.63-12-7-19.85Z"/><path id="_36" data-name=" 36" class="cls-5" d="M421.91,361.12c-1.29-10.51-10-18.1-19.44-16.95s-16,10.64-14.77,21.15,10,18.11,19.44,16.93S423.19,371.64,421.91,361.12Zm-17.14-9.57c13,0,13,23.38,0,23.38S391.8,351.55,404.77,351.55Z"/><path id="_35" data-name=" 35" class="cls-5" d="M1127.32,571.42c4.87-9.4,2-20.58-6.49-25s-19.24-.31-24.11,9.1-2,20.58,6.5,25S1122.46,580.84,1127.32,571.42Zm-8.71-17.65c10.73,7.37-2.45,26.65-13.18,19.3s2.44-26.58,13.18-19.13Z"/><path id="_34" data-name=" 34" class="cls-5" d="M518.07,344.23c-4.24-6.8-12.73-7.12-12.73-7.12l-19.15.3.67,38.37s15.18,0,19.22-.4A17.65,17.65,0,0,0,518,368.6a18.56,18.56,0,0,0,3-11.87A20.2,20.2,0,0,0,518.07,344.23Zm-15.7,24.25h-8.59s-.33-19.38-.41-24.11c7.85-.1,8.18-.1,11.26-.1,5.67.1,8.06,4.34,9.26,7.08a55.64,55.64,0,0,1,.55,6.95,11.26,11.26,0,0,1-3.59,7.45,12.57,12.57,0,0,1-8.42,2.73Z"/><path id="_33" data-name=" 33" class="cls-5" d="M465.77,360.85a16.75,16.75,0,0,0,5-8.24A12,12,0,0,0,460.59,339c-.31,0-.61-.07-.92-.09-3.92.16-23.54,1.53-23.54,1.53l2.12,38.31,7.1-.49-1-14.22,12.32-.87,3-.21s3.81,6.25,4.18,10.12c.14,1.39.21,2.79.22,4.2h6.9a29.58,29.58,0,0,0-1.78-10.91A22.12,22.12,0,0,0,465.77,360.85ZM461.46,355c-1.49,1.26-5.67,1.32-5.67,1.32l-11.77.78-.69-9.81c1.81,0,11.2-.78,11.38-.78a37.73,37.73,0,0,0,4-.26,5.42,5.42,0,0,1,3.08,1.42,3.94,3.94,0,0,1,1.55,3.29,5.46,5.46,0,0,1-1.92,4Z"/><path id="_32" data-name=" 32" class="cls-5" d="M870.14,419.18c1.44-10.49-5-20-14.45-21.36s-18.22,6.16-19.62,16.64,5,20.06,14.44,21.38S868.69,429.68,870.14,419.18Zm-14.08-13.63c12.57,3.34,6.59,25.93-6,22.6s-6.59-25.95,6-22.6Z"/><path id="_31" data-name=" 31" class="cls-5" d="M815.12,404.32a16.94,16.94,0,0,0,7.46-6.16,12.07,12.07,0,0,0-5.35-16.2c-.24-.12-.49-.24-.73-.34-3.77-1.14-22.66-6.24-22.66-6.24l-10.49,36.9,6.86,1.84,3.71-13.73,11.91,3.22,2.88.78s1.55,7.14.65,10.91a37.4,37.4,0,0,1-1.18,4l6.53,2.28a29.26,29.26,0,0,0,2-10.91A21.35,21.35,0,0,0,815.12,404.32ZM813,397.27c-1.82.69-5.88-.64-5.88-.64l-11.46-3.14,2.57-9.52c1.69.59,10.85,2.93,11,3,1.8.56,3.92,1.07,3.92,1.07a5.54,5.54,0,0,1,2.45,2.34A4.06,4.06,0,0,1,816,394,5.61,5.61,0,0,1,813,397.27Z"/><path id="_30" data-name=" 30" class="cls-5" d="M954.18,460.77a16.78,16.78,0,0,0,7.84-5.49,12,12,0,0,0-3.92-16.58l-.72-.41c-3.67-1.47-22-8.16-22-8.16L921.75,466l6.67,2.43,4.87-13.4,11.59,4.22,2.81,1s.94,7.26-.3,10.92a34.61,34.61,0,0,1-1.51,3.93L952.2,478A29.37,29.37,0,0,0,955,467.26,21.56,21.56,0,0,0,954.18,460.77Zm-1.51-7.2c-2,.53-5.73-1.12-5.73-1.12l-11.12-4.1s2.27-6.31,3.35-9.28c1.63.75,10.56,3.93,10.71,3.93,1.77.72,3.79,1.41,3.79,1.41a5.57,5.57,0,0,1,2.27,2.55,4.07,4.07,0,0,1,0,3.63A5.56,5.56,0,0,1,952.67,453.57Z"/><path id="_29" data-name=" 29" class="cls-5" d="M768,391.51a16.74,16.74,0,0,0,7.29-6.34,12,12,0,0,0-5.67-16c-.26-.13-.53-.24-.8-.35-3.8-1.06-22.79-5.71-22.79-5.71l-9.61,37.16,6.9,1.68,3.37-13.85,12,2.95,2.9.7m4.12-7.2c-1.8.73-5.88-.51-5.88-.51l-11.52-2.86,2.34-9.57c1.7.55,10.9,2.66,11.08,2.72,1.82.51,3.92,1,3.92,1a5.5,5.5,0,0,1,2.51,2.28,4,4,0,0,1,.47,3.61,5.55,5.55,0,0,1-3,3.35Z"/><path id="_28" data-name=" 28" class="cls-5" d="M910.44,440a28.4,28.4,0,0,0-3.06-1.06c-3,5.65-9.62,9.69-15.52,5.63-10.75-7.36,2.43-26.66,13.18-19.29a8.73,8.73,0,0,1,3.92,6.87c1.63.71,3.4,1,5,1.77l2,1a17.25,17.25,0,0,0-8.77-17c-8.44-4.39-19.24-.33-24.11,9.08s-2,20.58,6.49,25,19.25.32,24.11-9.08c.2-.37.35-.76.53-1.14Z"/><polygon id="_27" data-name=" 27" class="cls-4" points="889.78 369.81 881.27 375.99 884.52 386.01 876.01 379.83 867.5 386.01 870.75 375.99 862.24 369.81 872.75 369.81 876.01 359.79 879.27 369.81 889.78 369.81"/><polygon id="_26" data-name=" 26" class="cls-4" points="405.45 422.32 415.57 429.7 411.71 441.62 421.83 434.25 431.97 441.62 428.09 429.7 438.23 422.32 425.7 422.32 421.83 410.4 417.97 422.32 405.45 422.32"/><polygon id="_25" data-name=" 25" class="cls-4" points="848.74 476.17 855.75 481.27 853.08 489.52 860.08 484.43 867.09 489.52 864.42 481.27 871.42 476.17 862.75 476.17 860.08 467.91 857.43 476.17 848.74 476.17"/><polygon id="_24" data-name=" 24" class="cls-4" points="489.55 570.65 493.82 573.68 492.17 578.78 496.43 575.68 500.71 578.78 499.08 573.77 503.33 570.65 498.06 570.65 496.43 565.63 494.8 570.65 489.55 570.65"/><polyline id="_23" data-name=" 23" class="cls-4" points="457.32 579.74 453.51 591.66 441 591.66 451.14 599.04 447.25 610.97 457.4 603.59 467.52 610.97 463.65 599.04 473.77 591.66 461.26 591.66 457.4 579.74"/><polygon id="_22" data-name=" 22" class="cls-4" points="394.51 628.74 402.94 634.88 399.73 644.82 408.16 638.66 416.6 644.82 413.38 634.88 421.81 628.74 411.38 628.74 408.16 618.79 404.94 628.74 394.51 628.74"/><polygon id="_21" data-name=" 21" class="cls-4" points="583.72 511.73 592 517.75 588.84 527.48 597.1 521.46 605.38 527.48 602.22 517.75 610.5 511.73 600.25 511.73 597.1 501.98 593.94 511.73 583.72 511.73"/><polygon id="_20" data-name=" 20" class="cls-4" points="529.66 632.03 537.29 637.58 534.39 646.57 542 641.02 549.63 646.57 546.73 637.58 554.34 632.03 544.92 632.03 542 623.05 539.09 632.03 529.66 632.03"/><polygon id="_19" data-name=" 19" class="cls-4" points="518.32 674.19 525.32 679.29 522.66 687.54 529.66 682.42 536.66 687.54 533.99 679.29 541 674.19 532.35 674.19 529.66 665.93 527.03 674.19 518.32 674.19"/><polygon id="_18" data-name=" 18" class="cls-4" points="572.62 706.26 582.74 713.63 578.87 725.56 589 718.18 599.12 725.56 595.25 713.63 605.38 706.26 592.86 706.26 589 694.33 585.13 706.26 572.62 706.26"/><polygon id="_17" data-name=" 17" class="cls-4" points="736.23 561.65 744.74 567.85 741.49 577.87 750 571.67 758.51 577.87 755.26 567.85 763.77 561.65 753.2 561.65 750 551.65 746.74 561.65 736.23 561.65"/><polygon id="_16" data-name=" 16" class="cls-4" points="698.02 597.94 705.04 603.04 702.35 611.3 709.36 606.18 716.38 611.3 713.69 603.04 720.71 597.94 712.04 597.94 709.38 589.68 706.69 597.94 698.02 597.94"/><polygon id="_15" data-name=" 15" class="cls-4" points="722.6 625.72 726.85 628.82 725.23 633.84 729.48 630.74 733.76 633.84 732.13 628.82 736.39 625.72 731.11 625.72 729.48 620.69 727.85 625.72 722.6 625.72"/><polygon id="_14" data-name=" 14" class="cls-4" points="782.7 596.86 791.21 603.06 787.96 613.08 796.45 606.88 804.96 613.08 801.73 603.06 810.22 596.86 799.71 596.86 796.45 586.84 793.25 596.86 782.7 596.86"/><polygon id="_13" data-name=" 13" class="cls-4" points="733.62 677.32 743.74 684.7 739.88 696.63 750 689.25 760.12 696.63 756.26 684.7 766.38 677.32 753.86 677.32 750 665.4 746.2 677.32 733.62 677.32"/><polygon id="_12" data-name=" 12" class="cls-4" points="744.49 813.4 747.74 815.75 746.51 819.58 749.75 817.22 753 819.58 751.75 815.75 755 813.4 750.98 813.4 749.75 809.57 748.53 813.4 744.49 813.4"/><polygon id="_11" data-name=" 11" class="cls-4" points="827.17 722.4 834.17 727.52 831.5 735.76 838.5 730.66 845.51 735.76 842.84 727.52 849.84 722.4 841.17 722.4 838.5 714.16 835.86 722.4 827.17 722.4"/><polygon id="_10" data-name=" 10" class="cls-4" points="856.39 766.63 864.91 772.81 861.65 782.84 870.16 776.64 878.68 782.84 875.42 772.81 883.91 766.63 873.4 766.63 870.16 756.61 866.91 766.63 856.39 766.63"/><polygon id="_9" data-name=" 9" class="cls-4" points="909.28 736.66 916.3 731.56 907.63 731.56 904.96 723.3 902.31 731.56 893.61 731.56 900.63 736.66 897.94 744.92 904.96 739.82 911.97 744.92 909.28 736.66"/><polygon id="_8" data-name=" 8" class="cls-4" points="938.31 718.18 945.33 723.28 942.64 731.54 949.67 726.44 956.67 731.54 953.98 723.28 961 718.18 952.33 718.18 949.67 709.95 946.98 718.18 938.31 718.18"/><polygon id="_7" data-name=" 7" class="cls-4" points="936.92 756.28 945.43 762.48 942.17 772.5 950.69 766.3 959.2 772.5 955.94 762.48 964.46 756.28 953.94 756.28 950.69 746.25 947.43 756.28 936.92 756.28"/><polygon id="_6" data-name=" 6" class="cls-4" points="940.31 798.35 947.31 803.45 944.64 811.71 951.65 806.61 958.65 811.71 955.98 803.45 962.99 798.35 954.28 798.35 951.65 790.09 949 798.35 940.31 798.35"/><polygon id="_5" data-name=" 5" class="cls-4" points="980.33 725.4 987.33 730.5 984.66 738.76 991.66 733.66 998.67 738.76 996 730.5 1003 725.4 994.33 725.4 991.66 717.14 988.98 725.4 980.33 725.4"/><polyline id="_4" data-name=" 4" class="cls-4" points="1010.06 704.53 1018.58 710.71 1015.32 720.73 1023.83 714.55 1032.35 720.73 1029.09 710.71 1037.6 704.53 1027.09 704.53 1023.83 694.51 1020.63 704.53 1010.32 704.47"/><polygon id="_3" data-name=" 3" class="cls-4" points="1034.23 673.11 1042.74 679.29 1039.49 689.31 1048 683.13 1056.49 689.31 1053.26 679.29 1061.75 673.11 1051.23 673.11 1047.98 663.08 1044.74 673.11 1034.23 673.11"/><polygon id="_2" data-name=" 2" class="cls-4" points="1015.22 635.76 1025.34 643.13 1021.48 655.06 1031.6 647.68 1041.72 655.06 1037.86 643.13 1047.98 635.76 1035.46 635.76 1031.6 623.83 1027.74 635.76 1015.22 635.76"/><polygon id="_1" data-name=" 1" class="cls-4" points="1076.56 641.84 1083.56 646.94 1080.89 655.2 1087.9 650.1 1094.9 655.2 1092.23 646.94 1099.23 641.84 1090.56 641.84 1087.9 633.58 1085.25 641.84 1076.56 641.84"/></svg>